/* XPM */
static char *background[] = {
/* columns rows colors chars-per-pixel */
"50 50 44 1 ",
"  c black",
". c #44392F",
"X c #483A2F",
"o c #463A32",
"O c #4B3D34",
"+ c #4F3F39",
"@ c #503F39",
"# c #4F4033",
"$ c #544334",
"% c #5A4736",
"& c #5E4936",
"* c #52423A",
"= c #5A4739",
"- c #5D4A3A",
"; c #654D37",
": c #694E37",
"> c #654E3A",
", c #684F38",
"< c #6E5137",
"1 c #6C523A",
"2 c #765437",
"3 c #73553B",
"4 c #795639",
"5 c #77593E",
"6 c #7B5A3D",
"7 c #6D5642",
"8 c #745A44",
"9 c #7C5E44",
"0 c #7A5E49",
"q c #7E6047",
"w c #7D6149",
"e c #825E3D",
"r c #86603F",
"t c #89623F",
"y c #815F42",
"u c #846245",
"i c #8D6440",
"p c #8F6947",
"a c #83654C",
"s c #88674A",
"d c #8B6A4E",
"f c #916D4D",
"g c #8E6C50",
"h c #916F52",
/* pixels */
"sddd>ddddddddddqqqqwddwq88dddddaa9w,gggggggsfffffp",
"i1e;$;;>;;;;;;;1;;;;;1;>;;;r>;;;;;;:iiiiiiiitttttt",
"i:<3%;;;;;;;;,;,;;;,;;;;;;;,;3;;;;;%6iiiiiiitttttt",
"i5e;$;;;;;;;;;;,;;;1;;;;;;1;;;;;;,;%6iiiiiiittpttp",
"i36<$;;;;;;;;;;;;;;;;;>;>-;;;>>>;;;*1ittiiiiittttt",
"+OOoooo#OXXoO....#.##o########o#OOOooOOooo.OOOOO$%",
"4444qruqyuuuu1qqssssasssauaghhhhhgfdgfsuy9y1X8ryi4",
"2422224222226><tuuuuuuuuuuuuuuuquuuuu9u5i8;:$<2222",
"2224242222222<6uuuuuruuuuuuuuuuuuuuuu93911,;O12222",
"222422222222111quuuuuuuuuuuuuuuuuuuuuuqq1;<;O12222",
"232243222222;%33uuuuuuquuuuuuquuuuuuu6u1;;11O24422",
"OOOOO+O+OOOOooOO##.####.OO#O###oOOOOO###O#OOoOO+O@",
"$sdddda9998117q9qqqqqqqq15131155y696dauqauusgggdu8",
"$333;;;;;;;;;;;;&;;<;;;;>;;;1;;1133353333333635334",
"$331,;;;;;;;;;;;;;;;,;;;;;;;;;;1143333333333333333",
"$363;;;;;;;;;:;;;;;;1;;;,;55;;;;;33333333335333333",
"$1;&&&%;&&&&;;%;&%&&&&&&&&%;%%%;%;<;;1;;1;;>;1;,,,",
"0000909w0ww0+009qw-#oOO-780000089uwwwww9w0-$-&7w09",
"ttiiiiiep9<6O24242354422222222322242322222;$3334ii",
"itiiiii<64;2$22242222222324424222222222221;%;,1tii",
"iiiiiittue6<;222423222222222222222222222<;;;;;etii",
"itiittii<e1;$22<t2412222222222222242222222;%;;itit",
"$$=*@@++O+@O+@@@$##*O++*+oooo+@O$$$%XX%$OO+OO+@*$$",
"uusfhhhggpsssssuu5$19yudfhfpiiifptttttppippppppp8&",
"uuuuuuuuuuuuuuuuy3@:6eeiyiiitiiittttpttpiiitttett3",
"uuuuuuuuuuuuuuuuueO:;2iiiiiiiiiiptttttttiiitt135e3",
"uuiuuuuuuuuyuyuyu3X::eiyitiiiiittitttttptpttt3i6,1",
"9y99y99999y9y88683O>;eyyeyttettttttrttttttrt;5;;;%",
"qaaw>0waaaaaaaaaaaaaaaayaaaadsaaqqw.1qwwsaaaaaaw9w",
";;;;%:,433833333333333733338633331,$>;;<;;;;;;;;>;",
";;;,$;,33333333333333333333333333;;$,>;6;;;;;;;;;;",
";;;:%;;333333333333333333333333333;$;;;;<<;;;;;;;;",
";;;;O24443433333155333333333313311>o>;;>8,;;;;;;:;",
"OOOOOOOOOOOOOOOo###++*+O++++**++*++oooOOOooo oOOOO",
"226ee9ydgs66652#;1;58qasu8831138383755wa0w9wu62;64",
"22222e22224222<#;;1;;;;;1;;;;;;;;;;;;;;;;;1,;:2%44",
"22224222222222<#;;;;;;;;;;;;;;;;;;>;;;;;;;;;>;;;22",
"6242222e242422<X;>;;;;;;;3;;;;;;6;1;;;;;;;;;;;%%22",
";;%;;%;;&;;;&&%.$=*=%%=%%%%%%%%%%#$*#=$%%%%%%$$X;&",
"8880ad0a&7sadga58=$$$>79daddasassgdddd8-=qas78%%aa",
"uuuuuuuu11iiiiiiiiiiiiiittptiiiitttptttr11uuuuuuuu",
"uuuuuuuu73eiitiiiiiiiiiitttiiiiitttit6t6%1uuuuuuuu",
"uuuuuuuu15etiiiiiiiiiiiippiitiitptiitt<1$1iuuuuuuu",
"uuyyyuuu7,4yitiiiiiiiiiiitiiiiiitptit6:5&5uuuuuuua",
"$O@@@@@@@***%*@O********;@@$OO$X$XX.o.$$##$###.#$#",
"6955338683323;1*45666442iiuye44ytiuuui966422<;%;35",
"33233335333;;;,;e;42224244222222224222225t62<;$;33",
"333333e33333<;;;3,22222422222222222222222222;;$;33",
"333333333333,>;%::222222222222222222222222222;$;<3",
"%=%%%%%%%-%%*%%O%%%%;%;%;$$;%$%%&&&%%&%%%%&%&$O=%%"
};