/* XPM */
static char *end[] = {
/* columns rows colors chars-per-pixel */
"50 50 161 2 ",
"   c #271F1F",
".  c #27201E",
"X  c #29211F",
"o  c #2B2322",
"O  c #322927",
"+  c #312728",
"@  c #342B2A",
"#  c #3A2E2E",
"$  c #3C312D",
"%  c #372F31",
"&  c #3D3231",
"*  c #41332E",
"=  c #4D3D2F",
"-  c #423434",
";  c #433836",
":  c #4C3D32",
">  c #473738",
",  c #443939",
"<  c #4B3C3B",
"1  c #4F4033",
"2  c #544334",
"3  c #5A4635",
"4  c #5D4836",
"5  c #53423A",
"6  c #5A4739",
"7  c #5D4A3A",
"8  c #604733",
"9  c #644C37",
"0  c #694E37",
"q  c #634C3B",
"w  c #684F38",
"e  c #6D5037",
"r  c #66503C",
"t  c #6C523B",
"y  c #745337",
"u  c #795637",
"i  c #75543A",
"p  c #785639",
"a  c #76583E",
"s  c #7B593D",
"d  c #4E4141",
"f  c #534442",
"g  c #564947",
"h  c #594B45",
"j  c #574A4A",
"k  c #5A4C4B",
"l  c #5E504C",
"z  c #5D5152",
"x  c #5D5859",
"c  c #654F41",
"v  c #665143",
"b  c #6D5541",
"n  c #64534B",
"m  c #69564B",
"M  c #6C594F",
"N  c #725741",
"B  c #745943",
"V  c #7B5C43",
"C  c #745C4B",
"Z  c #7A5E48",
"A  c #625353",
"S  c #6A5750",
"D  c #665854",
"F  c #6C5B53",
"G  c #665758",
"H  c #655B5B",
"J  c #6A5D5C",
"K  c #725E53",
"L  c #7D6046",
"P  c #7E6249",
"I  c #6B605E",
"U  c #746055",
"Y  c #7E6354",
"T  c #76635A",
"R  c #78655B",
"E  c #6C5F60",
"W  c #6C6362",
"Q  c #736563",
"!  c #7C6C66",
"~  c #756A6A",
"^  c #796D6D",
"/  c #7D706E",
"(  c #7C6F70",
")  c #7D7374",
"_  c #825E3E",
"`  c #86603E",
"'  c #8B633F",
"]  c #805F42",
"[  c #846245",
"{  c #8C6441",
"}  c #8D6847",
"|  c #846449",
" . c #88674C",
".. c #8A694D",
"X. c #866A53",
"o. c #8A6B52",
"O. c #866F5D",
"+. c #8A6F5A",
"@. c #8D725B",
"#. c #8C7565",
"$. c #83736C",
"%. c #897669",
"&. c #917661",
"*. c #947964",
"=. c #837674",
"-. c #877977",
";. c #837A7B",
":. c #897E7E",
">. c #8C817E",
",. c #998375",
"<. c #8D8280",
"1. c #8B868D",
"2. c #948986",
"3. c #9A8A82",
"4. c #958C8B",
"5. c #8E8A93",
"6. c #8E8C9A",
"7. c #918F9D",
"8. c #9B9393",
"9. c #9F9999",
"0. c #A19794",
"q. c #A39C9B",
"w. c #9896A3",
"e. c #9B99A5",
"r. c #A9A1A0",
"t. c #B3ACAB",
"y. c #B7B0AD",
"u. c #B8B0AE",
"i. c #A7A5B1",
"p. c #A9A7B2",
"a. c #AAA8B5",
"s. c #ADACB9",
"d. c #BBB5B4",
"f. c #B9B7BC",
"g. c #BEBABA",
"h. c #C3BEBC",
"j. c #B9B7C0",
"k. c #B9B8C2",
"l. c #C0BEC6",
"z. c #C1BFC9",
"x. c #C9C4C2",
"c. c #C4C3CD",
"v. c #C9C7CF",
"b. c #D2CECD",
"n. c #D4D1D1",
"m. c #DAD6D6",
"M. c #DBD8D7",
"N. c #DDDADA",
"B. c #E1DEDD",
"V. c #DDDCE1",
"C. c #E5E3E5",
"Z. c #E8E5E5",
"A. c #EAE8E7",
"S. c #E8E7EA",
"D. c #ECEBEC",
"F. c #F0EFEE",
"G. c #F1F0EF",
"H. c #EEEEF0",
"J. c #F4F3F3",
"K. c #F8F8F7",
"L. c #FEFEFE",
/* pixels */
"L Z L B r V V B L L B L L L L a b a b B L L a t t b L L L L L N a N N r L |  .| | | | | [ [  .[ [  .",
"' i y r 6 r e r w w 9 w 9 4 t e w w w r t t 9 9 r r w a 9 w 9 9 9 w w e ` ' ' { ' ' ' ' ' ' ' ' ' ' ",
"' y e w 6 w 9 w 9 w w 9 9 w w e 9 w 9 w 9 w 9 9 w w w w w w 9 9 9 w 9 9 s ' ' ' ' ' ' ' ' ' ' ' ' ' ",
"' s y q 3 9 w 9 9 w 9 9 w 9 9 w w 9 9 e w 9 r 9 9 9 w w 9 w 9 w 9 w w 3 y ' { ' ' ' ' ' ' ' ' ' ' { ",
"` i y 4 3 4 9 9 9 9 9 r 9 4 4 9 4 9 9 9 9 4 9 9 9 9 9 4 9 9 9 9 q q 8 2 e ] _ ] ' ' ` ` [ ' ` [ ] { ",
"q 7 q 7 2 7 7 7 7 7 3 2 1 2 3 6 3 3 4 4 7 7 7 4 7 7 7 3 7 2 5 2 5 6 7 6 6 q q q q q 7 7 3 r r r q w ",
"s a s s V L L V L s V a t r L L | ` | o.@.,.@.@.@.,.,.@.@.+.O.X.|  . . .}  .| ] L L a t 7 a V V V s ",
"y i y y y u u y i y y u y 9 a ..,.,.,.4.2.>.>.! ~ I W R R ! ! / %.#.+.o...] ] V s s e w 4 e y y p u ",
"y u i u u u i i y y p p 0 m F / ;.^ J z j f < < : : , , , < < < f c A T %.O.Z N t i 0 9 4 t i y i p ",
"u i i u y i p i y p y y e D - < j d < < < f < < < < < < 5 < d < < < < < < n X.B i 0 0 q 3 0 u i i y ",
"y y y y i y y y y e y e 4 l # - , - W t.d.t.u.u.u.u.y.y.t.u.u.u.t.u.t.) d > K B q 9 q 0 2 0 i i y i ",
"6 7 q 7 7 q 7 7 6 q 6 4 7 l # # , , q.L.L.L.L.L.L.L.L.L.L.L.L.L.L.L.L.g.j - n q 7 7 7 q 6 8 q 7 7 8 ",
"q B P | L Z V B B B i b b F # # < , 8.L.L.L.L.L.L.L.L.L.L.L.L.L.L.L.L.B.Q < M V V Z Z [ | P | P B B ",
"7 i t y t 9 9 w 9 0 0 9 9 F # # > < =.F.L.L.L.L.L.L.L.L.L.L.L.L.L.L.L.S.:.f K N t i i a a a a i i p ",
"8 i t t t 9 9 9 0 9 0 9 r D $ # d A G B.L.L.L.L.L.L.L.L.L.L.L.L.L.L.L.C.4.j K N N i i i i i i i N N ",
"8 a s t 9 9 e 9 9 0 9 0 e F $ # g 2.n h.L.L.L.L.L.L.L.L.L.L.L.L.L.L.L.N.1.z K N i i a N N i N y p i ",
"2 q 9 4 3 6 6 3 3 6 6 6 7 D & $ g t.G 0.L.L.L.L.L.L.L.L.L.L.L.L.L.L.L.N.5.H F w 8 q 9 4 9 4 9 r 4 q ",
"a N N V a b i N B C b b 7 J & & k x.^ =.J.L.L.L.L.L.L.L.L.L.L.L.L.L.L.V.7.~ G C N b 7 2 7 r r B N i ",
"{ { { { ' { { [ } [ a a r U & & k b.4.J B.L.L.L.L.L.L.L.L.L.L.L.L.L.L.C.6.;.z K s y w 4 t a a [ { { ",
"{ { ' { { ' ' a s a e w 4 U & & k B.u.A x.L.L.L.L.L.L.L.L.L.L.L.L.L.L.S.7.1.z K y e 9 4 9 t y ' { { ",
"' { ' { { ' ` _ ` s a e 9 U - & g B.b.G r.L.L.L.K.L.L.L.L.L.L.L.L.L.L.D.e.5.J F a e 0 8 9 e s ' { ' ",
"' ' ' { { { ` _ y u e 9 8 K ; & g m.A.Q :.K.L.L.L.L.L.L.L.L.L.L.L.L.L.C.p.6.) z V e 9 3 4 w ` { ' ` ",
"t r t q q q 7 7 7 7 q 7 h F , % g M.K.:.Q A.L.L.L.L.L.L.L.L.L.L.L.L.K.k.a.w.8.k M 9 q 7 7 q r t t 9 ",
"| | | | P | P P P L |  . .T , & j M.L.q.G b.L.L.L.L.L.L.L.L.L.L.L.L.K.s.a.p.f.z U [ }  .} | } | V r ",
"[ [ [ [ | [ | [ ] } ] ] ..O., & k M.L.h.n t.L.L.L.L.L.L.L.L.L.L.L.L.K.v.k.j.N.~ F } ' ' ' ` ` ` ` t ",
"[ [ [ [ [ [ [ [ ]  . .] ] K , - k M.L.B.G 2.L.L.L.L.L.L.L.L.L.L.L.L.L.H.z.l.H.4.n ..' ' ` a s a s t ",
"[ [ [ [ | [ [ [ ] ] ] ]  .K > - k N.L.G.( ^ F.L.L.L.L.L.L.L.L.L.L.L.L.H.c.c.J.u.h Y { ' ` a s y t r ",
"b N B a N N N N N N Z N Z J > - k N.L.L.4.G m.L.L.L.L.L.L.L.L.L.L.L.L.H.c.c.K.m.A M s y 9 w w 9 4 6 ",
"t b N r q i b B N C C B C U , & k N.L.L.u.z d.L.L.L.L.L.L.L.L.L.L.L.L.H.c.c.J.G.~ k P B B B B t r r ",
"t t t 9 4 0 t N V V N p B J ; - z N.L.L.b.A 8.L.L.L.L.L.L.L.L.L.L.L.L.D.c.c.J.L.0.j K t y t r r t e ",
"9 9 9 w 4 w w i N i i i a F ; & k N.L.L.A.Q ^ J.L.L.L.L.K.L.L.L.K.L.L.H.c.c.J.L.x.k m 9 9 9 9 w 9 9 ",
"r 9 0 9 4 9 q i i N i a a M ; - z B.L.L.K.:.G M.L.L.L.L.L.L.L.L.L.L.L.H.k.c.G.L.S.E n r 9 w 9 9 9 e ",
"9 9 9 4 3 0 w i w w w t N S > > l N.L.L.L.r.j d.L.L.L.L.L.L.L.L.L.L.L.F.k.j.D.K.S.) f v q 8 0 8 9 9 ",
"7 7 7 4 7 q c q q c q q q A ; > k N.L.L.L.h.g 4.L.L.L.L.L.K.F.C.M.b.g.q.;.( ) ~ E d < h < 8 6 5 7 7 ",
"s s s L ] V ] | | ] ] V [ F , ; j N.L.L.L.B.A G t.t.q.2.:.^ J A j < > - * * - * - - > n B V t 9 s ] ",
"y y u y p p p i p i p i i D & & k N.L.L.L.J.^ , < , - - - - - - - - * - - * - - - - d n 0 0 e 8 i u ",
"u u u i u i p p i y u i u n - ; j n.D.C.V.n.( > - > - - - - - - - # & & - - - < f 7 r t w w 8 8 i u ",
"i u u i u i u a u s u i a v ; - > H E x W x f > < - - & - - & & * - & - - > j v r r r w w 9 3 4 u i ",
"4 4 4 7 q 8 8 8 8 q 7 8 q l ; - # @ + @ % % # # - - ; - - & - & - - , ; - , l 7 6 2 2 2 2 2 = = 8 8 ",
"N b b B B B B C 7 9 V V L D ; ; % % + o o   X X X   o   o . o + + @ # $ : c C 7 6 b C B t b q q B B ",
"] } }  ...] ] ] b t ' { } K ; - # # # @ @ @ @ + O O @ * * : : 8 r y s ` ` ' ' s e a [ [ } | | [ | [ ",
" .] ] ] ] ..] ] i t _ { ' | j ; # # - - : : 8 e i i _ _ ' { { { ' ' ' ' ' ` _ a 4 t V | [ [ [ [ | ] ",
"] ] ] ] ] } ] ] t y _ { ' { | a p ] ] _ { { { { { { { ' { { { { { ' ' { ' ` a e 3 t ` ` | [ [ [ [ [ ",
"] ] V N N ] V V r q i s _ _ _ [ _ _ _ _ ] ] _ _ _ _ _ _ _ _ _ _ ` ` s ` _ i e r 4 i L V s a L s V V ",
"c c c < 6 q c q q q 7 c q v 6 5 c c c c c q c q c c q c q q c 6 2 6 6 3 6 4 r q q q q q q q 2 q w c ",
"Z ] ] ] N V V V V B B i i t 9 7 ] V V ] ] V s a ] [ [ ] s ] ] V L L V V s [ V V L V a u t t 7 t B B ",
"N i i i i N i i i N i t 0 9 q 9 p 0 y y y y p p p u i i y y i p y y u y y y y u u s u i e 9 3 9 t i ",
"y N i N i p B i N i a t t 0 9 8 i e p u y y i p i u y i y p y i u y u y a y y u s u u y e 9 3 9 t i ",
"N i N N i N p p N p N N 0 9 0 8 0 0 u u p p p p i i p i i p i i i y y i u i y y a i i p 0 w 4 9 t i ",
"6 8 6 8 8 8 8 8 8 6 8 8 8 < 8 : 8 < 8 9 8 8 8 8 8 q 8 8 8 4 8 8 8 9 7 q 8 q q 8 8 8 8 8 6 6 : 6 4 q "
};
