/* XPM */
static char *item[] = {
/* columns rows colors chars-per-pixel */
"50 50 204 2 ",
"   c #453A2A",
".  c #4D3D2E",
"X  c #4C3E32",
"o  c #4B432F",
"O  c #54422D",
"+  c #55482E",
"@  c #4D4733",
"#  c #554334",
"$  c #5B4635",
"%  c #544B32",
"&  c #5D4936",
"*  c #5A4738",
"=  c #5D493A",
"-  c #5B5534",
";  c #5B5B35",
":  c #575839",
">  c #604735",
",  c #644B36",
"<  c #6A4E36",
"1  c #634C3A",
"2  c #694E39",
"3  c #6D5137",
"4  c #66513D",
"5  c #6C523B",
"6  c #6B5B3C",
"7  c #635837",
"8  c #755337",
"9  c #75543A",
"0  c #785639",
"q  c #75593D",
"w  c #7A5A3D",
"e  c #795837",
"r  c #5E6339",
"t  c #63643D",
"y  c #6B653E",
"u  c #646B3C",
"i  c #6D6A3F",
"p  c #595646",
"a  c #5D584B",
"s  c #5B5946",
"d  c #644E40",
"f  c #6D5541",
"g  c #6E5841",
"h  c #625C4D",
"j  c #615F45",
"k  c #725741",
"l  c #745A43",
"z  c #7B5D43",
"x  c #765B48",
"c  c #785D48",
"v  c #645B51",
"b  c #695B57",
"n  c #656D41",
"m  c #6C6D43",
"M  c #63634B",
"N  c #69694B",
"B  c #776043",
"V  c #7D6146",
"C  c #736D43",
"Z  c #7D6249",
"A  c #7E6949",
"S  c #6B7343",
"D  c #6D7A48",
"F  c #6A744A",
"G  c #757144",
"H  c #727B46",
"J  c #7D7549",
"K  c #757D4B",
"L  c #7D7B4C",
"P  c #7C7047",
"I  c #6A6454",
"U  c #6D635B",
"Y  c #70655D",
"T  c #767D52",
"R  c #757752",
"E  c #835E3E",
"W  c #86603F",
"Q  c #8C643F",
"!  c #805F42",
"~  c #856346",
"^  c #8C6441",
"/  c #84644A",
"(  c #896549",
")  c #86684E",
"_  c #807748",
"`  c #837D4C",
"'  c #8B754F",
"]  c #907D4F",
"[  c #876D54",
"{  c #8B6D53",
"}  c #8E7354",
"|  c #8E7158",
" . c #8F7A51",
".. c #907356",
"X. c #957D55",
"o. c #937559",
"O. c #96785C",
"+. c #9A7B5D",
"@. c #987A56",
"#. c #9C7D61",
"$. c #A07F62",
"%. c #76834C",
"&. c #7B824A",
"*. c #7C8B4D",
"=. c #7F914F",
"-. c #798352",
";. c #7D8A54",
":. c #778151",
">. c #7F9152",
",. c #818C4F",
"<. c #80904F",
"1. c #808C52",
"2. c #9D845C",
"3. c #9B8758",
"4. c #849454",
"5. c #869856",
"6. c #8B9D56",
"7. c #869559",
"8. c #8A9C5A",
"9. c #8B9559",
"0. c #939357",
"q. c #A58A5D",
"w. c #A98F5F",
"e. c #A1865A",
"r. c #AC945E",
"t. c #A4925C",
"y. c #8EA25B",
"u. c #91A45C",
"i. c #92A85E",
"p. c #9FB35F",
"a. c #A58363",
"s. c #A98666",
"d. c #A58B60",
"f. c #AB8B65",
"g. c #A78668",
"h. c #AA8769",
"j. c #AC8A6A",
"k. c #B28E6C",
"l. c #AC9262",
"z. c #AD9B62",
"x. c #A79463",
"c. c #B09362",
"v. c #B39B64",
"b. c #B89D64",
"n. c #B5906F",
"m. c #B69D68",
"M. c #B89E69",
"N. c #B28E70",
"B. c #B79371",
"V. c #BB9573",
"C. c #BF9875",
"Z. c #BE9A78",
"A. c #96AB61",
"S. c #9BAF62",
"D. c #9CB363",
"F. c #9DB069",
"G. c #BCA266",
"H. c #BDA46B",
"J. c #BAA56A",
"K. c #A1B766",
"L. c #A2B965",
"P. c #A1B66A",
"I. c #A4BC69",
"U. c #A9BE6A",
"Y. c #BCA770",
"T. c #C09674",
"R. c #C19975",
"E. c #C19C7B",
"W. c #C2A66B",
"Q. c #C4AA6D",
"!. c #C8AC6E",
"~. c #C9B06D",
"^. c #C3AB70",
"/. c #CAAE72",
"(. c #CDB273",
"). c #C9B178",
"_. c #D4B675",
"`. c #D6B976",
"'. c #DABB76",
"]. c #DABD79",
"[. c #D4BC7C",
"{. c #A7C069",
"}. c #ABC46C",
"|. c #AFC96E",
" X c #B0CA6E",
".X c #AFCA70",
"XX c #B1CB70",
"oX c #B5D074",
"OX c #DEC27B",
"+X c #E3C47D",
"@X c #E9CA7F",
"#X c #E8C77D",
"$X c #E8C780",
"%X c #E5C981",
"&X c #EBCC83",
"*X c #E0C681",
"=X c #F1CF84",
"-X c #EED185",
";X c #F4D384",
":X c #F9D686",
">X c #FBD887",
",X c #F4D688",
"<X c #FCDB8A",
"1X c #FAD788",
/* pixels */
"V c c l 4 c c c c c c c c c c k k k k k c c l 5 f k l V B c c c f l l 1 / / / / / / / ( ( ^ ! ~ ! ( ",
"^ 0 9 2 & 1 < 4 2 < 1 < 2 < 2 k , , 2 2 2 2 2 2 1 < 5 5 5 5 < 2 2 2 1 2 E ( ^ ^ ^ ^ ^ ^ Q Q ^ ^ Q Q ",
"^ 9 2 4 $ 2 2 2 , , 2 2 , , 2 3 2 , , 2 , 2 , 2 < 2 2 2 2 1 2 2 2 2 2 & e ^ ^ ^ ^ ^ ^ Q Q ^ Q Q Q Q ",
"^ q 9 , $ , 2 , 2 , 2 2 2 2 2 2 2 , 2 2 2 , 2 1 2 2 2 2 2 , 2 , , 2 2 $ 0 ^ ^ ^ ^ ^ ^ ^ Q ^ ^ Q ^ ^ ",
"! 9 9 , O , , , , 1 , 1 1 1 , 1 1 1 1 1 , , > > , , , , , , , , , , = # 3 W W W W E ~ E W W E ! E ! ",
"1 = = * * * = = > * * X X X $ * > X * > d * d d d = = = * # # # # * d # * = = = = 1 , = * , 1 1 2 1 ",
"l w w w ! z c z ! ! z l f 2 ! ! ! ( ( ) ! ) ( ) c / ~ ( / / ) / ~ / ) ) ) ) / V ! z x 9 , 6 z z ! z ",
"8 9 8 8 8 0 0 8 8 8 8 9 9 , 3 ! ( ( ! ( ! ! ( ! / ~ / ~ ~ / / / ( ~ ( ~ ~ V V V ! q 2 1 & 2 9 8 8 8 ",
"8 0 8 0 8 0 0 8 0 9 8 8 < < q z ~ ~ ~ / ~ ~ ~ ~ ~ ~ z ~ ~ ~ z ~ ~ ~ ( / ~ ~ w w 9 2 < 2 > 2 9 9 8 8 ",
"0 8 0 0 8 9 0 8 8 0 8 8 2 2 q z ~ ~ ~ ( ! w z z z z { z ~ z x w q ~ ~ ~ ~ ~ ~ l 9 2 2 2 $ < 0 9 0 8 ",
"9 3 8 3 < 9 9 3 9 3 9 3 , $ 5 l ~ z V z / h.V.a.{ a.{ l ! l $.#.c z ~ V z c V k 1 1 1 1 $ < 9 9 9 9 ",
"X 1 1 1 d 1 1 1 1 1 > > # X & = = / g $ | h.V.R.T.s./ k * l B.#.& = = , , 4 , = = * * d * 1 1 = > 1 ",
"d ! Z / Z c z l k k 5 5 5 [ g g #.C.a.o.V.$.O.j.+.j.C.n.{ N.k.[ k ) x k Z V c c z c z ~ / / / / c l ",
"> k 5 9 5 2 < , 2 1 < > , #.l k #.o.{ g.R.k.o.{ } j.C.a.V.E.$.{ / O.N.) 3 9 8 0 q 9 9 0 0 q q 9 0 k ",
"> 9 9 2 2 , 2 2 , > , > k s.C.h.o.E.k.o.B.s.a.n.+.j.+...g.C.a.s.g.O.g.O.< V c 5 9 k 9 9 9 q q k 9 k ",
", 9 k 9 2 2 , , > } } , $ Z B.g.g.R.R.a...a.C.C.} O.B.B.+.+.a.C.g.| a.[ X.&X$X2.2 9 9 0 9 9 9 q k 9 ",
"# 1 1 & * $ # & A v.).$ A Y.l.| g.V.R.$.o.B.C.R.$.$.R.T.k...E.T.j.$.T.s.W.;X:X_., 5 4 , , , , , , , ",
"9 k 9 l k g q q r.+X;Xr.OX;XH.(./.k.R.#.2.m.a.s.+.O.h.d.q.+.R.T.n.e.q.!.Q.Q.!.l., x. .# = 1 d g g g ",
"^ ^ ^ ^ ^ ^ ^ ! w e.:X~.-X!.%X<X$Xc.V.O.*X;Xq._.(.X.l.].c.s.T.T.V.c.+X$Xb.*X:XW.l.&X`.5 5 q w ! ^ ^ ",
"^ ^ ^ Q ^ ^ ^ 0 e @.,X~.`.`.1X:X+Xd.j.f._.Q.[.>X>X(.w.;X'.f.e.h.V.f.&X&XG.,X:X+X(.<XW.* , 2 9 Q ^ ^ ",
"^ ^ ^ ^ ^ ^ W E e 3.(.z.r.&X<X=Xq.2.^.M.W.r.Q.=X1X'.'.:X>X(.Q.r.h.`.1X>X'.+X_.m.r.@XQ.$ , 2 w ^ ^ ^ ",
"^ ^ ^ ^ ^ ^ ^ q t J [.W.!.:X+XW.J.).W.].`.'./.'.1X_.,X<XQ.W.+XQ.e.@X<X:X;XH.Y.,X@XQ.z.% $ 2 E ^ ^ W ",
"2 f f , 1 1 & @ D 0.&XG.G.].!.&X<X<X(.J.;X#Xb.#X+Xv.Q.$X`.M.+X:X+XH.'.Q.Q.z.~.<X>X'.G r # 1 f 5 4 , ",
"/ / / c Z / c S D L OX;XQ.l./.:X<X;X^.&X>X+Xb.W.J.+X+Xv.W.M.G.:X`.v.G.r.`._._.OXG.L <.5.7 ( ( ( z , ",
"/ / ~ ~ ( ~ g P.D.u.0.z.t.J.'.#XOXG.Y.<X:X;XW.z.[.<X+X!.-X&X!.@X^.,X>X(.r.3.&.%.%.y.}.p.7 E ! ^ ~ 5 ",
"~ ~ ~ ~ ~ c L oX X}.D.I.A.4.m t G X.m.+X&X=XW.J.-X,X/.&X;X%Xb.v.x.0.` G %.y.i.p.}.|.|.{.7 3 w e w 9 ",
"~ ~ ~ ! ~ 6 F.XX|. X X|.XX}.K.8.*.%.H S C C y y _ J i G C m m %.4.=.>.i.{.|.|. X|.|.|.|.H < B q 3 5 ",
"k k l w 5 L XX.X|.|.|.|. X X X X}.}..XI.D.y.5.=.*.*.*.<.5.y.p.}.|.|.|.|.|.|.|.|.|.|.|.|.6.+ , , , # ",
"f k k d : P.XX}.|.|.|.|.|.|.|.|. X|.|.|.|.|.XX.X}.4.-.D. XXX|..X|.|.|.|.|.|.|.|.|.|.|.|.p.6 5 5 5 4 ",
"5 5 5 , ;.XX}.XX|.|.|. X|.|.|.|. X|.|.|.|..XI.8.y.I v D D.y.}.|.|.|.|.|.|.|.|.|.|.|.|.|.U.,., 3 1 2 ",
"2 , 1 ; K.XXXX X|.|.|.|.|.|.|.|.|.|.|.|.|.XX7.a : v b p M s 8. X|.|.|.|.|.|.|.|.|.|.|.|.|.u.% 2 2 2 ",
"2 2 O u |.}. X X|.|.|.|.|.|.|.|.|.|.|. XI.;.K h s K N :.M p 5. X|.|.|.|.|.|.|.|.|.|.|.|.|.L.u $ , 2 ",
"& ,   %. X X|.|.|.|.|.|.|.|.|.|. X X}. X8.v M 5.%.R F 7.4.-.{. X|.|.|.|.|.|.|. X|.|.|.|. XU.,.# , , ",
"= = X S |.|.|.|.|.|.|.|.|.|.|.|. XXXXX XL.R T -.I Y U v -.}..X.X|.|.|.|.|.|.|.|.|.|.|.|..XU.*.o , = ",
"w w q 7 ;.{.|.|.|.|.|.|.|. X|.|.|.}.|.|.XX}.u.U U U U U p 8.XX|.|.|.|.|.|.|.|.|.}. X|. X}.p.u $ w w ",
"8 8 8 8 O S I. X|.|.|.|.|.|.|.|.|.|.|.|. XXX7.b U v a b a 7. X X|.|.|.|.|.|.|.|. XXX|.}.p.H % $ 9 e ",
"8 0 0 9 9 . t S.XX X|.|.|.|.|.|.|.|.|.|.|.|.D.n s -.i.%.%.I. X X|.|.|.|.|.|. X|.|.}.A.%.u + $ > 8 0 ",
"8 8 0 0 0 0 < & ,.D.|. X X X|.|.|.|.|.|.|.|.|.L.D.|. X|. X XXX}.|.|.|.|.|.|.|.{.D.*.: # , 2 $ > 0 8 ",
", * > 1 , , > > # % n 4.D.}.|.XXXX XXX.X|.|.|.|.oX|.|.|. XXXXX X|.|.|.}.U.D.4.n @   o $ # # o . $ , ",
"f f f x c l l x = 1 l 5 7 7 S *.y.D.I.}.}.{.{.}.|.|.}.}.K.D.A.y.8.u.6.&.i 6 2 $ # 5 B x f 5 1 & g c ",
"( ( ( ( ( ( ( ~ 5 5 Q ^ ^ W w 8 < % - 7 r r ; u %.S u r ; - ; 7 6 q e e E ^ ^ w 5 w ~ ( ~ ( ( / ( ( ",
"( ( ~ ( ~ ~ ~ ~ 5 9 W Q ^ ^ Q Q Q Q W W E e 8 8 3 8 8 e e E W Q Q Q ^ Q Q Q E 0 , 5 c ( ~ ~ ~ ~ ~ ~ ",
"! ( ( ! ~ ( ~ ~ 5 9 ~ ^ ^ Q Q Q Q Q Q Q Q Q Q Q Q Q Q Q Q Q ^ Q Q Q Q Q Q E 0 5 $ 5 ~ ^ ~ ~ ~ ~ ~ ~ ",
"z z z k l l z x 4 , 5 w w E E E E E E E E E E E E W E E W W E W E W E E E q 5 5 = 9 z z w z z B z c ",
"1 1 1 d = 1 d d d 1 1 1 4 1 = # d d d 5 d 1 d 1 4 4 4 1 1 4 1 = & & * & $ = 1 1 , 1 1 , 4 = * = 1 d ",
"z z c l l k l z l l z q 9 f 1 * w z z z z w w w V ~ ~ w E w z w w z z z z ! z z z w z w 9 5 & 4 z l ",
"k 9 9 9 9 9 9 9 9 9 9 2 , 2 1 , w < 8 8 0 0 0 0 8 0 8 8 8 8 8 8 8 8 8 8 8 8 8 0 w E w 8 3 4 $ 2 9 9 ",
"9 9 9 9 9 0 w q 9 k 9 5 5 1 , , 9 < 8 8 8 9 0 e 8 0 8 0 8 0 8 8 0 8 8 0 0 0 8 8 0 w 8 8 < , $ , 5 9 ",
"k 9 9 k 9 9 q 9 q 9 9 9 2 1 & $ 3 2 8 e 0 8 0 0 8 8 0 8 8 9 8 0 9 8 8 0 8 8 8 8 0 8 8 8 8 , + 2 5 9 ",
"* * = > * , = * & & * * $ & # # $ # > > & > & , > > > , > > > > , & > $ > > > , > > > > & * # # & * "
};
