/* XPM */
static char *player_eat[] = {
/* columns rows colors chars-per-pixel */
"50 50 214 2 ",
"   c #050301",
".  c #090603",
"X  c #0D0904",
"o  c #0E0B09",
"O  c #120D05",
"+  c #120E0A",
"@  c #1C1205",
"#  c #15110C",
"$  c #1A140C",
"%  c #161107",
"&  c #1B1612",
"*  c #1E1913",
"=  c #21160A",
"-  c #251A0C",
";  c #2D1B0C",
":  c #231C15",
">  c #241F19",
",  c #2C1E13",
"<  c #3B1C13",
"1  c #34130D",
"2  c #2C251D",
"3  c #2B2114",
"4  c #342413",
"5  c #31271B",
"6  c #3C2B1C",
"7  c #3A291A",
"8  c #31210F",
"9  c #2F2821",
"0  c #342C23",
"q  c #382E25",
"w  c #3D342A",
"e  c #393127",
"r  c #471D15",
"t  c #432B1C",
"y  c #49261A",
"u  c #48341E",
"i  c #53261E",
"p  c #462B20",
"a  c #582B22",
"s  c #443325",
"d  c #4B3123",
"f  c #4C3926",
"g  c #433629",
"h  c #4A362A",
"j  c #45392D",
"k  c #4B3B2D",
"l  c #523426",
"z  c #523C2C",
"x  c #5B3C2B",
"c  c #583C24",
"v  c #4C3E31",
"b  c #473B31",
"n  c #503F31",
"m  c #64392E",
"M  c #66352A",
"N  c #753C2D",
"B  c #6D3D32",
"V  c #7D3D31",
"C  c #5A4125",
"Z  c #5B412D",
"A  c #56412C",
"S  c #4E4134",
"D  c #4E4439",
"F  c #544335",
"G  c #5A4635",
"H  c #5E4936",
"J  c #554539",
"K  c #594739",
"L  c #5D4A3B",
"P  c #544839",
"I  c #6F442C",
"U  c #64492B",
"Y  c #664B2B",
"T  c #644C36",
"R  c #6A4E37",
"E  c #634D3A",
"W  c #684F38",
"Q  c #624432",
"!  c #744639",
"~  c #6D5134",
"^  c #64523E",
"/  c #6B523B",
"(  c #765437",
")  c #755836",
"_  c #73553B",
"`  c #795638",
"'  c #75583D",
"]  c #7A5A3C",
"[  c #785537",
"{  c #77402F",
"}  c #7E603C",
"|  c #5E5142",
" . c #614F42",
".. c #7F4F41",
"X. c #655341",
"o. c #6A5642",
"O. c #6C5945",
"+. c #6D5C4A",
"@. c #625448",
"#. c #725740",
"$. c #735A44",
"%. c #7C5D43",
"&. c #715E4A",
"*. c #795D48",
"=. c #7F6045",
"-. c #74624D",
";. c #7D644C",
":. c #756452",
">. c #796652",
",. c #776856",
"<. c #7D6A55",
"1. c #7A6A5B",
"2. c #766958",
"3. c #7B6F68",
"4. c #9F343D",
"5. c #835E3D",
"6. c #86603E",
"7. c #8A623F",
"8. c #A83B46",
"9. c #8C4642",
"0. c #98474B",
"q. c #815F41",
"w. c #855647",
"e. c #A74A53",
"r. c #A94D56",
"t. c #846245",
"y. c #8D6441",
"u. c #846449",
"i. c #88674C",
"p. c #8A6A4C",
"a. c #886A4A",
"s. c #916E4B",
"d. c #94714C",
"f. c #816E59",
"g. c #866B54",
"h. c #936E5A",
"j. c #936554",
"k. c #85725C",
"l. c #8B745D",
"z. c #8D7155",
"x. c #997553",
"c. c #957759",
"v. c #8E704E",
"b. c #B75462",
"n. c #8A7760",
"m. c #8D7B64",
"M. c #8B7A68",
"N. c #927D65",
"B. c #937F68",
"V. c #A5835D",
"C. c #95826B",
"Z. c #9B856D",
"A. c #9D886F",
"S. c #9E8365",
"D. c #9E8A71",
"F. c #89807B",
"G. c #A58769",
"H. c #A38D73",
"J. c #AA8970",
"K. c #A99276",
"L. c #A9957B",
"P. c #AD987E",
"I. c #A59279",
"U. c #B1997D",
"Y. c #B39779",
"T. c #D76E84",
"R. c #E47A92",
"E. c #F67692",
"W. c #ED6E88",
"Q. c #998681",
"!. c #AE9A80",
"~. c #B49E82",
"^. c #A29D9A",
"/. c #B5A086",
"(. c #BAA284",
"). c #B6A389",
"_. c #BAA58B",
"`. c #BEA88D",
"'. c #BEAB91",
"]. c #BDBCBC",
"[. c #B5B5B4",
"{. c #A9A5A3",
"}. c #DE8896",
"|. c #EA869B",
" X c #C2AB8D",
".X c #C2A688",
"XX c #C2AE92",
"oX c #C9AF93",
"OX c #C6B194",
"+X c #CAB495",
"@X c #C7B49A",
"#X c #CAB69A",
"$X c #CDB99C",
"%X c #D2BC9D",
"&X c #FC85A1",
"*X c #FD8DA9",
"=X c #F789A5",
"-X c #FD92AE",
";X c #FF9AB5",
":X c #FF9DB8",
">X c #FE95B1",
",X c #C7A5AC",
"<X c #CFBCA1",
"1X c #D3BEA1",
"2X c #C1B7B8",
"3X c #D6C1A2",
"4X c #DAC4A5",
"5X c #DCC6A8",
"6X c #DEC8AA",
"7X c #E1CBAC",
"8X c #E5CFB3",
"9X c #E8D2B6",
"0X c #BFC0C0",
"qX c #C0C1C1",
/* pixels */
"=.%.%.$.^ %.$.%.%.$.;.%.$.%.$.' #.' o.#.%.=.#.^ o./ %.%.*.%.%.$.#.#.#.E u.u.i.i.y.u.u.t.7.y.y.u.t.t.",
"7.' _ / H W W / T / T / W / / / / T T W / / / W W W / _ / / W / W W W W q.y.y.y.y.y.y.y.7.d.y.y.y.y.",
"7._ R R G W E T T W T T E T / / T T T / T T T E W T W W T / E T R W E T ] y.7.y.y.7.y.y.7.7.7.7.y.7.",
"7.] _ T G T W T R T T T T T T ~ / T E ~ R T T T W E W W T W T T T W T G _ y.y.7.7.y.y.y.7.7.7.7.7.y.",
"5._ _ T G T T T T T T E T E T T T H T T H T E T Q E T E T T E T E E Q F W 5.6.6.7.7.5.q.y.y.6.6.y.y.",
"E L E K j j K L L L G F v S G K K G G H K L L E L L L L K J J J J L L J L E E L T E E #.u.i.-./ E W ",
"] ] ;.:.P 0 g ' q.%.%.] / ^ %.u.a.u.u.u.u.u.u.t.u.u.u.u.i.u.u.u.u.u.i.i.i.u.u.t.q.u.s.s.s.a.$.$.%.] ",
"( ( %.1.+.v 3 5 Q ( ( [ _ T ~ t.t.t.t.t.t.t.u.u.t.q.t.u.u.t.t.t.t.t.t.t.t.q.%.} t.s.s.s.u.] / _ ( _ ",
"_ ( ` >.+.K g & : z ! ` R R ' %.6.a.v.V.G.K.U.Y.c.c.V.x.a.p.a.u.t.t.t.t.t.=.=.p.d.s.t.t.] / / ( [ ( ",
"( ( _ u.1.+. .q & # 5 Q E W $.u.S.Y.#X4X3X%X3X+XU.(.Y.V.V.V.x.a.;.=.} =.=.=.;.t.) ) ] ' / T ( _ ( ( ",
"! ( ( *.f.1.+. .j 2 + 2 F O.c.K.`.%X7X6X%X+X+XU./.+X.XY.G.V.v.} } ' G S F g f A ~ / _ _ ~ T _ ! ( ! ",
"K L E  .:.g.:.o.J g 2 S f.L./. X%X4X3X%X+X`. XU. X$X.XL.S.c.6.~ ) } } H 5 - ; u Z T T Q Z L E L L T ",
"E %.q.u.;.-.&. .G P -.A.U. X XXXOX%X+XOXOX`.U.U. XXXU.D.l.;.) Y Y 6.v.) u 8 ; t l x x x Q q.u.u.%.$.",
"H _ / _ _ &.X.L L <.H.P.~.~.).).`.+X+X XOX'. XU.U.U.D.l.>.O.U C U ] } } ) C 8 8 7 u l l T ] ] _ _ _ ",
"H / _ _ W W j * * 2 9 0 0 q g v D | &.,.k.C.C.L.D.,.P D S w 6 6 u C Y ~ ~ Y c 4 8 t d x _ ' ' _ _ _ ",
"T _ ] / E W 5 # e q > O . . + + # # % O o X X 2.P X X .   . .   . X X O % @ @ O O - t Q _ _ _ _ _ _ ",
"F E T H G E q j G.p.A 6 3 # - g o.C.L.P.P.C.& 2 & 9 ^ P S S s ; % X . . X O @ @ X $ C P T L T T E T ",
"' #.' $.#.$.s s x.R | w > $ X O w A.$X4X7XL.o     D -.O.^ ^ u = % + X O @ 8 6 C $ 4 T F L W ^ $.#.#.",
"y.y.y.y.y.x.F e c.H | > O . . . @ C.3X4X5X1.  o   P :.+.O.F - X $ & % X % 8 6 6 X f T H / ] ] q.y.y.",
"7.y.y.y.d.U.:.9 C.H 0 % . . . X % k.%X5X4X| w Z.> S k.-.&.f % O $ + X . X - 6 8 O C T G T / _ 7.y.y.",
"y.7.y.7.c.`.C.* m.N.F $ X . X $ u S.4X7X4Xj | #Xw S C.<.-.f @ @ % X X . X = 6 & - C U E E T ] 7.7.7.",
"7.7.7.y.Z.).~.q @.Y.A.<.P j L k.H..X7X7X$X9 ,. XD 5 k.k.<.S 4 - X . . . . - 6 X 6 ) Y H T T 5.7.7.7.",
"^ W ' E C._.`.| w U.U.U.K.P. X$X+X%X7X7X_.* M./.+.& ,.f.<.O.^ H 6 : * 3 0 C A X C U C P L ^ ^ o./ E ",
"u.u.u.u.H.'. Xm.* C..X(./. X#X1X4X4X7X4X,.* H.~.n.# ^ >.-.<.<.k.<.>.-.,.<.C.D * ' U C / a.y.y.a.%.W ",
"q.t.t.t.J.'.`.~.w e P.(.(. X@X3X1X1X5XM.+ J K.I.C.> 0 &.&.>.f.N.C.C.C.A.A.C.> w <.' T W 7.5.5.5.5./ ",
"t.t.t.t.P.'._.`.C.: j A./. X#X3X$X).:.+ q h.h.l.g.j o k O.&.f.k.C.C.C.C.C.0 # -.<.O.T T 5.` 5._ ] _ ",
"t.t.y.t.H.'.`.)./.n.> + 2 w D D w & o b j.w.9...R Q , . > n &.f.C.k.k.-.2 O ^ <.-.-./ ~ 5.] 5._ / W ",
"#.#.#.#.l.'.`.~.~.`.P.:.S j e 9 w J j.j.j.w.! B B x x q # . & 9 e 0 : . X S :.-.&.o.H T W W E T T F ",
"o.&.#.W O.`.'.).).XX+X+X%X1X#X+X@XG.w.M m ..M M r < p d n j 2 * & & 2 S ^ O.^ O./ ^ ^ -.$.$.o.o./ ^ ",
"W W W T  .~.'._._.XXXX#X1X%X%X%X1X(.h.B M w.M M 1 1 < s E +.+.&.&.-.&.&.+.^ ^ ^ o.^ ^ ~ ' / / W W W ",
"W T T W L D.'._._.@X$X$X%X+X1X1X<XXX!.h.w.w.M a r p n E +.&.&.&.-.-.&.O.^ ^ ^ ^ ^ o.^ ~ T T W T W E ",
"T E T E H &.~.).`.$X%X$X$X#X@X@XoX.X~.G.w.B i a d K X.o.O.+.&.&.-.-.O.O.O.^ ^ ^ ^ / ^ T T W T T T W ",
"T Q E H F W A._.XX1X@XoX`.`.oXXXXX~.L.N...a r p x  .X.X.X.X.X.o.#.&.&.o.O.^ ^ ^ ^ O.^ T T T T H T T ",
"T L L L L E m.oX<X<X@XXXXXXXXX'.!.D.n.:.L p r l  . .E  . . . . . .X.X.O.^ ^ ^ ^ ^ O.P D S P F F L L ",
"] ` ] q.q.%.z.XX<X<X@X'.'.~.!.I.B.l.:.@.n p r n n n n x  . . . . .X.X.X.^ ^ ^ ^ +.O.' ' $.$.) T ] 5.",
"( [ [ _ ` ` %.~.@X@XXX'.~.D.D.N.M.g.+.@.n p 1 k K K n  .n n n  .L E X.X.O.O.O.^ O.^ ^ W T ~ ~ T [ ` ",
"( ` ` [ [ [ _ Z.@X@X@X'.~.I.C.N.l.>.@.x p p h p n K n J J n n K J K L X.X.X.O.-.-.X.T R T W H H [ ( ",
"` ` ` ` ` [ _ j.OX@X@X'.!.M.k.1.>.+.x b v F.{.3.h h n n  .n K K L L L ^ ^ ^ ^ O.O./ T T ~ W G H [ _ ",
"Q T G T Q K Q o._.<X@X'.L.N.k.&.+.K @.3.{.0X[.].^.1.v j v n n n L X.X.X.^ X.+.O.o.G F F F F k k H Q ",
"O.o.o.$.*.*.O.;.OX5X<XOX_.L.m.:.@.x Q.qXqX].[.0X0X0XM.y s n  . .X.X.^ E ^ X.O.O.^ O.*.*.#.o.E E *.*.",
"t.y.i.y.u.t.q.J.7X6X<X@XXX).!.Z.<.c 0.,X2X2X'.[.2X,X0.r h F L X.X.X.^ ^ X.o.O.O.' ' u.u.y.u.u.u.t.t.",
"u.t.t.t.t.t.g.<X9X7X3X#XOX_.!.!.Z.' 4.E.|.E.W.|.|.E.8.l G L ^ X.X.X.^ ^ o.o.O.o.^ / %.u.t.t.t.t.t.q.",
"q.t.t.t.t.q.J.8X8X7X5X<X#X`.!.P.I.l.e.=X*X&XW.&X-X*X0.G ^ X.o.X.^ ^ ^ ^ X.O.+.^ G / t.y.t.t.t.t.t.t.",
"%.%.%.#.#.%..X9X8X8X6X4X%XXX~.I.A.C.0.=X;X>XE.*X>X-X0.E O.o.X.^ X.^ X.o.o.O.$.^ H _ } ] ] %.%.] %.*.",
"E E  .E L X.!.@XoX X.X.X(.U.H.m.N.c.9.=X:X;X&X;X:X=X9.$.$.$.&.o.X.^ O./ O.$.*.X.E E E E E L G L E E ",
"%.%.q.#.] #.q.q.%.%.%.' _ / / H %.] { T.:X:X>X:X:XR.V t.q.] q.%.=.=.=.=.%.q.%.q.q.] ] ` _ / T ^ ] %.",
"_ _ _ _ _ _ _ _ ' _ _ / T T T T ] R I 0.*X:X:X:X>Xr.I ( ( ( ( ( ( ( ) ( ( ( ( ` ] 5.` [ ~ T G T _ _ ",
"_ _ _ _ _ ' ` ' _ _ _ _ ~ T T T _ / _ N e.R.|.R.b.N ( ( ( ( ( ( ) ( ( ( [ ( ( ( ` ` [ _ W T G T / _ ",
"_ _ _ _ _ _ _ ` ' _ _ _ W E T H R T _ [ I N V N B ( ( ( ( ( ( ( ( ( ( ( ( _ _ ( ( ( ( ( ( T G T / _ ",
"H L Q L L L Q L H L H H H G F n G G H T Q T H H T Q U H H H H Q H T H T T Q Q T H E Q L G G F K H L "
};
