/* XPM */
static char *player[] = {
/* columns rows colors chars-per-pixel */
"50 50 205 2 ",
"   c #050301",
".  c #090603",
"X  c #0C0904",
"o  c #0E0B09",
"O  c #120D05",
"+  c #110E09",
"@  c #1A1105",
"#  c #14110C",
"$  c #1A140C",
"%  c #1A1511",
"&  c #1E1914",
"*  c #171410",
"=  c #251A0C",
"-  c #2C1D0C",
";  c #221609",
":  c #34140E",
">  c #231C15",
",  c #2B1E12",
"<  c #231E18",
"1  c #3C1B14",
"2  c #2E0C09",
"3  c #2E200F",
"4  c #30200F",
"5  c #2D2114",
"6  c #2B231C",
"7  c #29231B",
"8  c #342414",
"9  c #3C2519",
"0  c #32281D",
"q  c #3B2B1B",
"w  c #382717",
"e  c #342C23",
"r  c #392E22",
"t  c #3A3127",
"y  c #3E3328",
"u  c #451E17",
"i  c #41261C",
"p  c #4C241C",
"a  c #432D1C",
"s  c #442D1B",
"d  c #53251E",
"f  c #46301A",
"g  c #422D21",
"h  c #5B2B23",
"j  c #443224",
"k  c #4B3422",
"l  c #4D3825",
"z  c #42372B",
"x  c #4B362A",
"c  c #44392E",
"v  c #4D3B2C",
"b  c #523225",
"n  c #553D23",
"m  c #533C2C",
"M  c #5A3B2B",
"N  c #553A26",
"B  c #443B30",
"V  c #4B3E31",
"C  c #523F30",
"Z  c #65342A",
"A  c #6B362C",
"S  c #6D3E32",
"D  c #723E33",
"F  c #5D4325",
"G  c #5D442C",
"H  c #5B442A",
"J  c #4B4134",
"K  c #544335",
"L  c #5A4634",
"P  c #5E4936",
"I  c #554539",
"U  c #5A4639",
"Y  c #55493B",
"T  c #5D4A3B",
"R  c #61452B",
"E  c #6A4E2D",
"W  c #63492D",
"Q  c #634533",
"!  c #634C37",
"~  c #694E37",
"^  c #634E3B",
"/  c #684F38",
"(  c #6E4437",
")  c #7A4B3E",
"_  c #754539",
"`  c #6E5135",
"'  c #64523E",
"]  c #6C523B",
"[  c #765437",
"{  c #73553B",
"}  c #785638",
"|  c #74593E",
" . c #7B5A3C",
".. c #775936",
"X. c #5C4F41",
"o. c #5D5141",
"O. c #7F4F41",
"+. c #655441",
"@. c #695642",
"#. c #6C5945",
"$. c #6E5C4A",
"%. c #635749",
"&. c #715741",
"*. c #745A42",
"=. c #7B5D43",
"-. c #725E4A",
";. c #6C5E54",
":. c #7E6145",
">. c #74624D",
",. c #7A634C",
"<. c #766553",
"1. c #796652",
"2. c #7C6A54",
"3. c #7D6D5B",
"4. c #776A58",
"5. c #845F3E",
"6. c #87603E",
"7. c #8A623F",
"8. c #804F42",
"9. c #815F41",
"0. c #845848",
"q. c #846245",
"w. c #8D6441",
"e. c #8B6846",
"r. c #85644A",
"t. c #886649",
"y. c #86694C",
"u. c #8A6A4D",
"i. c #916E4B",
"p. c #93714D",
"a. c #826D56",
"s. c #8B6B53",
"d. c #826E58",
"f. c #8F6251",
"g. c #946B59",
"h. c #966955",
"j. c #8E7152",
"k. c #85725C",
"l. c #8A755D",
"z. c #937354",
"x. c #93765A",
"c. c #9A7A59",
"v. c #A17F5A",
"b. c #837561",
"n. c #8C7660",
"m. c #8D7A64",
"M. c #81776F",
"N. c #8E7F6B",
"B. c #927D65",
"V. c #917963",
"C. c #837973",
"Z. c #9E805E",
"A. c #A3825C",
"S. c #958067",
"D. c #95826A",
"F. c #9A846C",
"G. c #9D886F",
"H. c #9B8267",
"J. c #9E8B73",
"K. c #968670",
"L. c #A98B69",
"P. c #AE916F",
"I. c #A18D74",
"U. c #AA8C71",
"Y. c #A69076",
"T. c #AB9276",
"R. c #A69279",
"E. c #AB967C",
"W. c #AD987E",
"Q. c #B29A7E",
"!. c #B49777",
"~. c #8F8780",
"^. c #968F89",
"/. c #B39D82",
"(. c #B89F81",
"). c #A19C99",
"_. c #A09994",
"`. c #AE9C83",
"'. c #B6A185",
"]. c #BBA385",
"[. c #B7A389",
"{. c #BAA58A",
"}. c #BEA98D",
"|. c #BEAB91",
" X c #B1AEAC",
".X c #B2B0AE",
"XX c #BAB9B9",
"oX c #B6B5B4",
"OX c #A8A5A2",
"+X c #C2AB8C",
"@X c #C2AE92",
"#X c #C6B195",
"$X c #C9B495",
"%X c #C7B499",
"&X c #CAB69A",
"*X c #CDB99B",
"=X c #D2BD9E",
"-X c #CEBBA0",
";X c #D3BEA1",
":X c #D6C0A2",
">X c #DAC4A5",
",X c #DEC8A9",
"<X c #DDC7A8",
"1X c #E1CBAC",
"2X c #C1C1C1",
/* pixels */
":.=.=.=.' =.=.=.=.=.=.=.=.=.=.] #.&.#.| =.:.#.] @.] =.=.=.=.=.*.&.&.&.^ 0.t.t.t.t.r.q.q.e.e.q.e.q.q.",
"7.| { / P / / ^ / ] ' / ! ' ] ] ` ! ! ! ] ] ~ ! / ] ] { ' ] ^ ] / / / / w.w.w.w.w.w.w.w.w.w.7.7.w.7.",
"7.{ ~ ~ P ! ^ ! ! ! ! ! ! / ] ` ` ! / ] / ! ! ! ! ! ] ` ! / ! / ! / / !  .7.w.w.w.7.w.w.7.w.7.7.7.7.",
"7. .{ ! P ! / ! / ! / ! / ! ! / ^ ! ! ~ / ! / ! / ! / ! ! ] ! ! / / ! L { w.7.w.w.w.7.w.w.7.w.w.w.w.",
"9.{ ^ v K ! ! ! ! ! ! ! ! ! ! ! ! ! ! P ! ! ^ ! ! ! ! ! ! ! ! ! ! T ! C ` 6.6.6.7.5.5.w.w.i.u.y.w.w.",
"^ -.@.B 0 z U U T T U K V K U U U U U U U U T U T T T T U I I I I X.T I U ^ T ' ^ ! ! *.i.i.u.,.+.^ ",
"=.a.<.X.t & J  .9.9.=.=.] ^ =.r.t.t.q.t.t.t.t.r.q.q.t.t.u.,.r.r.q.r.u.t.y.t.q.:.9.9.s.p.i.e.:.| &. .",
"[ =.4.+.K 0 & q Q [ [ } { ! { 9.q.q.y.z.x.x.U.H.y.s.x.s.t.t.t.r.q.q.q.q.q.9.:.=.u.p.i.i.e.q.| ` { [ ",
"[ =.1.$.+.V < # > b ~ } ~ / *.=.Z.P.}.*X$X$X=X#XY.!.!.A.c.A.p.p.y.q.:.q.q.:.:.y.p.q. . .| { / ` [ [ ",
"[  .d.3.<.%.C t * + q ! Q -.x.U.Q.=X1X>X=X$X$X].'.+XQ.P.L.L.A.7.q.,.` ^ ' ] P W ~ ` | =.{ { ! ~ [ [ ",
"[ _ -.a.1.-.X.K e % 7 X.d.I.Q.$X>X,X,X:X$X#X}.Q.+X*X+XQ.L.Z.p.........L J r 8 w k Q ~ ` ! Q ~ ~ [ ` ",
"U X.+.1.1.-.+.K V V -.F.(.+X+X&X=X=X*X$X$X].].].+X$X+XT.D.j.:...E ..q.y.H 3 $ 4 a N R Q Q M T T ^ ^ ",
"! =.=.y.-.%.^ U %.B.W.].+X+X+X+X*X*X$X$X$X}.Q.Q.}.].W.K.k.,.| W R E e.7.[ F s - w s b N M G :.q.*.*.",
"Q { { &.$.^ C I 1.B.D.D.G.I.R.E.Q.+X+X].$X|.].Q.Q.E.D.3.,.#.P F n E ..6.....R 8 4 9 k k b Q  .{ { { ",
"^ ] { { ! < o o + + o + + * & < 6 e J J o.o.#.J.S.J t 0 6 7 5 5 8 q l n F F R n 8 - 8 s M { | { { { ",
"Q &. .~ ^ > 6 U I r = O o $ > > 6 7 > & * # X 4.J . # + + X X               . X . . @ i L { { { { { ",
"K ! / U ' 7 ^ L.y.l q 7 % $ w U 2.Q.}.|.|.S.. & o t $.' T Y K w = @ X . . O @ 3 = X @ J P ! ! ! ! / ",
"{ #.| { =.7 H p.Q %.J > $ X . , $.}.:X,X<X3.      J >.#.@.' l 3 @ O # O O $ 4 f n @ 3 H ^ ^ +.*.&.&.",
"w.w.w.e.c.0 I x.L %.5 o X . . X H $X>X>X>XY   X   J 2.$.#.' 8 X # & # + O @ 8 q q X l P ` &. .9.w.w.",
"w.w.w.c./.J c F.L r + X X . . + y Q.:X,X*Xt J D.& J k.<.-.P = O # # O . X @ 5 q 3 X n P ~ ~ | 5.w.w.",
"w.w.w.U.{.1.& J.k.v $ .     X = ' +X1X1X$X5 3.#Xe c S.2.<.Y = @ # O O . . O 3 q $ $ F W ! /  .w.w.w.",
"7.7.e.E.{.J.& 2.!.S.$.c 0 t ' l.P.=X1X1X'.$ D.+XJ 7 S.l.2.^ 3 3 @ O . . . X ; q X q E W ! / 5.w.w.9.",
"] ] -.W.}.[.t I Q.Q.E.I.G./.#X%X+X>X1X1XK.* J.'.' * 2.3.3.#.P L 0 $ + O # 5 l l X H W F L T ' ] ] ! ",
"q.q.s./.}.}.%.7 !.].].Q.].#X=X:X>X1X1X>Xo.7 W.`.3.+ ' 2.2.,.2.2.>.%.' ' #.>.2.c $ / F F ` e.e.e.*.! ",
"r.9.s./.|.}.G.% %.].].(.+X@X*X>X;X;X<XN.+ T /.T.D.* y >.>.>.d.n.3.S.D.S.D.F.S.7 e 2.| W Q 5.5.5.9.{ ",
"q.q.s.{.|.{.}.%.+ 4.].+X+X$X;X<X;X-Xm.% 0 V.B.F.S.t # T -.-.2.l.S.S.K.K.F.D.Y X ' a.#.! W {  .{  .{ ",
"q.9.z.{.|.[.[.W.V + V 4.V.J.`.J.n.B o 6 f.f.0.0.| L O # J @.1.3.S.S.S.D.S.Y X z d.2.>.' Q | 5.{ ` / ",
"&.&.*.E.@X}.[.(.W.%.& X . o o o . > C g.h.8._ _ Q Q b $   % z @.$.4.$.Y 7 . e 4.,.>.#.' P / ! ! T K ",
"@.#.&.D.@X[././.+X@X/.F.N.n.1.n.b.g.h.8.0.) D S Z h M m r % . . O O o . @ y #.>.-.#.| ' ] *.#.@.] +.",
"/ ] / d.#X|.{.{.@X#X#X;X,X;X;X;X+Xg.D d S O.A Z 1 2 1 9 K T K c t t z Y #.>.' ' ' #.' ' ] ] ] / / / ",
"~ ~ ! y.|.|.[.{.#X$X*X;X-X*X;X;X$X`.g.D O.8.Z h : : 9 x T $.-.>.,.1.>.>.$.#.' ' ' ' ' ' / ! / ! ! ! ",
"~ ! ! { ^.|.[.|.&X*X*X*X&X;X;X;X#X{.I.g.0._ h h p j K ' $.-.-.-.-.>.>.#.#.' ' ' ' ' ' ' ! / ! / ! / ",
"P ! ! L -.[.[.|.-X-X*X$X$X$X$X@X+X(./.g.O.Z h p b U @.@.#.#.-.-.-.>.-.#.#.' ' ' ' ' #.' ! ! ! P ! ! ",
"T T ! T +.E.{.%X-X%X@X}.}.@X$X@X{./.I.k.M h u h C +.@.+.+.+.+.+.@.$.-.-.' ' ' ' ' ' ' ' K P Y K T Q ",
"}  .=.=.0.I.|.-X;X%X@X@X@X@X@X/.I.N.d.$.U u u b S +.X.X.X.+.+.X.X.T +.@.#.' ' ' ' #.#.#.:.| ` ! 5. .",
"[ [ [ [ [ V.@X-X-X&X#X|././.`.J.V.2.$.X.C g u m C X.C C U T ^ +.+.+.' ' ' %.' ' ' -.#.' ! ` ` ! [  .",
"[ } } } [ s.|.-X-X#X|./.I.J.D.B.n.;.#.^ x 1 1 x C X.C U C I I U T ^ +.+.@.+.#.@.' #.@.] ! / P P [ [ ",
"[ } } [ [ =.I.-X%X%X|.[.R.J.N.m.g.;.X.C j i r r C I U I C I I K I I T ^ +.+.' #.>.-.' / ! / G P { [ ",
"Q Q T ! Q Q 2.#X%X%X|./.G.m.d.d.<.@.C z x C.^.X.g x C C I I I U T T T ' +.' ' @.$.$.' K K K J J Q ! ",
"&.#.@.*.=.$.,.@X-X-X|.`.m.k.1.>.#.C X.;.).XXXX.XC.X.x V C C K I T X.+.' ' ' @.@.#.] #.=.#.] ^ ! *.=.",
"r.w.w.r.q.r.t.+X;X-X#X/.R.m.>.%.T ;.OXXX2XXXoX2X2X XC.j x v K Y ' ' ' ' ' ' @.#.$.#.:.q.e.q.q.q.r.r.",
"q.q.q.9.0.r.9.P.>X-X#X@X[.`.B.2.' -. X>X2XXXoX2X2X2XM.j j v K ' o.@.' ' ' ' @.#.#.] =.q.q.q.q.q.9.q.",
"q.q.q.q.e.q.9.u.R.*X*X%X|./.`.B.2.>.4.^.).~.3.).).C.K v C K T ' +.' ' ' ' %.#.#.#.| q.7.q.q.q.q.q.q.",
"=.=.=.{ | =.=.=.+.l./.#X@X/.`.E.D.3.>.#.o.Y X.I K K K U U ^ ' +.+.' ' ' ' ' #.#.' | =.=. .=.=.:.=.=.",
"^ ^ X.^ T T X.+.X.T #.n.E.`.Y.R.J.S.l.1.@.^ P P P P T ^ @.@.@.+.+.' ' +.] @.#.=.@./ ^ T T ^ I T ^ ^ ",
"=.=.=.O.=.*.O.=.O. .=.&.&.*.-.s.B.S.S.l.1.@.@.' ' ' @.@.@.#.+.+.' +.' @.#.| =.=.=. . .} ] ] P ] =.*.",
"{ { { { { { { { { { { / ! / ! !  .| :.:.:.| | | | | { | ] { { ] { ] ] | [ [ [  .} 5. .[ ` ! U / ` { ",
"{ { { { [ {  .| { { { { / / Q ~ ` ~ [ [ [ [ [ { [ [ [ [ [ [ [ [ [ [ [ [ [ [ [ [ [ [ [ [ ` ! L ! { | ",
"{ { { { { | { } { { { { / / Q P ` ! ..{ [ [ [ [ [ [ ..[ [ [ [ [ [ [ [ [ [ [ [ [ { [ [ { ` / L ! ` { ",
"P T P P T L T ! T L ! L U U K K L L Q P ! P ! Q Q P P ! L L Q ! ! P ! P L ! ! Q Q T ! Q L U K U L T "
};
