/* XPM */
static char *wall[] = {
/* columns rows colors chars-per-pixel */
"50 50 215 2 ",
"   c black",
".  c #0E0F18",
"X  c #130F19",
"o  c #0E111B",
"O  c #12141E",
"+  c #1D141C",
"@  c #20131E",
"#  c #131520",
"$  c #1E1323",
"%  c #171D26",
"&  c #241624",
"*  c #2C1924",
"=  c #251928",
"-  c #2C1C29",
";  c #331C27",
":  c #341D28",
">  c #391F29",
",  c #2B1F30",
"<  c #1C232D",
"1  c #1F2730",
"2  c #29242B",
"3  c #3B222C",
"4  c #39272E",
"5  c #242D35",
"6  c #2A2C36",
"7  c #3D2630",
"8  c #362C33",
"9  c #3A2B33",
"0  c #29343C",
"q  c #33343D",
"w  c #43252E",
"e  c #452A2F",
"r  c #48282F",
"t  c #472730",
"y  c #442A32",
"u  c #4C2B32",
"i  c #522E33",
"p  c #45343C",
"a  c #48373C",
"s  c #553135",
"d  c #57383A",
"f  c #5C393A",
"g  c #623A39",
"h  c #663B3A",
"j  c #6B443E",
"k  c #70423D",
"l  c #2E3741",
"z  c #2E3B43",
"x  c #343B44",
"c  c #3A3E4A",
"v  c #433E44",
"b  c #4D3B41",
"n  c #533D42",
"m  c #5C3D40",
"M  c #35444B",
"N  c #394248",
"B  c #3C434A",
"V  c #3C494E",
"C  c #3B4B52",
"Z  c #3E5056",
"A  c #3F5359",
"S  c #43434B",
"D  c #4A474A",
"F  c #43494E",
"G  c #55464A",
"H  c #52494C",
"J  c #404651",
"K  c #414D52",
"L  c #4B4D54",
"P  c #564B50",
"I  c #43545A",
"U  c #49555A",
"Y  c #5B5356",
"T  c #664845",
"R  c #6C4944",
"E  c #654C4A",
"W  c #6C4F4C",
"Q  c #774640",
"!  c #784740",
"~  c #754943",
"^  c #7A4942",
"/  c #744E49",
"(  c #65524E",
")  c #73514D",
"_  c #7C524A",
"`  c #7B564B",
"'  c #6E5552",
"]  c #685856",
"[  c #6C5956",
"{  c #665E5E",
"}  c #755955",
"|  c #65605F",
" . c #73625E",
".. c #7B635C",
"X. c #786A5F",
"o. c #4A5C61",
"O. c #575D62",
"+. c #4C6065",
"@. c #4E666B",
"#. c #5B6265",
"$. c #53666A",
"%. c #5D6769",
"&. c #5D696C",
"*. c #546D72",
"=. c #5A6E72",
"-. c #577277",
";. c #5A7275",
":. c #5A7579",
">. c #5E787C",
",. c #636364",
"<. c #6C6764",
"1. c #606668",
"2. c #646A6B",
"3. c #6C6E6A",
"4. c #756B64",
"5. c #64706F",
"6. c #6B736E",
"7. c #73736D",
"8. c #7B746B",
"9. c #7C766D",
"0. c #656D71",
"q. c #637373",
"w. c #6B7472",
"e. c #617A7D",
"r. c #687979",
"t. c #777873",
"y. c #7B7B73",
"u. c #737E7B",
"i. c #855246",
"p. c #855649",
"a. c #8B5A4B",
"s. c #855D50",
"d. c #99644E",
"f. c #896657",
"g. c #956A54",
"h. c #94745F",
"j. c #9C755D",
"k. c #A16E53",
"l. c #A37155",
"z. c #AD7757",
"x. c #A4765A",
"c. c #AA7758",
"v. c #A5795E",
"b. c #AB785A",
"n. c #836F61",
"m. c #847465",
"M. c #8B7563",
"N. c #86776A",
"B. c #8C7B6D",
"V. c #927561",
"C. c #967B67",
"Z. c #9B7A63",
"A. c #817B71",
"S. c #A37D63",
"D. c #AB7E60",
"F. c #A07F68",
"G. c #75817E",
"H. c #7C827D",
"J. c #95816F",
"K. c #9D826C",
"L. c #83837B",
"P. c #8C8579",
"I. c #968574",
"U. c #998472",
"Y. c #958778",
"T. c #92897C",
"R. c #9D907F",
"E. c #A4826A",
"W. c #B38465",
"Q. c #BC8D6C",
"!. c #A78D76",
"~. c #B68E71",
"^. c #A4917C",
"/. c #AB947D",
"(. c #BC9374",
"). c #B89477",
"_. c #B4947A",
"`. c #C09473",
"'. c #657E81",
"]. c #6A7F81",
"[. c #678083",
"{. c #6A8385",
"}. c #6E8788",
"|. c #738483",
" X c #7C8583",
".X c #788887",
"XX c #748B8C",
"oX c #7A8D8C",
"OX c #799090",
"+X c #7D9392",
"@X c #828984",
"#X c #8C8E84",
"$X c #818E8C",
"%X c #908B80",
"&X c #85928E",
"*X c #8A938C",
"=X c #9C9485",
"-X c #979588",
";X c #94958B",
":X c #819795",
">X c #8A9690",
",X c #859997",
"<X c #8B9A95",
"1X c #A39582",
"2X c #A99D8A",
"3X c #B79F89",
"4X c #ACA493",
"5X c #B6AC9B",
"6X c #91A3A1",
"7X c #B8B2A2",
"8X c #C7A78C",
"9X c #C6AE93",
"0X c #C9AF93",
"qX c #CFB598",
"wX c #D7B796",
/* pixels */
":X:X/.Q.:XU.x.+Xe.>./ :.:.OX+X:X&X:X>.:X:X:XOXXX:X:X}.;.:XoX;.:.~ ;.XX:X+X+Xe.:.@.% M / =.=.>.Z.{.+X",
":X@Xt.c.z.Y.:.;.-.;.8.T. Xt.:.I.h.}.P.[.#X:X:XXX|.M.&.-.T.Y.P.;.,.<.|.XX;.u.XX+X@.% B [ <.x.T.T.A.'.",
"S.M.6.#XS.&X:.j.j.j.z.3.g.c.-.4./ -.w.2.3.}  .:.-.-.4.q.i. .:.-.2.^ 1.;.[ q.h.e.P < p h.9.8.b.7.z.S.",
"=.^ %.x.1.{ -.x.,.1.! s ] -.-.W U *.-.{ s *.! ! u ~ H ^ ^ ! ! ! ^ k ^ ^ / { &.*.k + r &.^ ! ! %.^ =.",
"= + O 4 r * * w w & $ o O $ $ $ & * o + + # % < % < + O   # & $ * & & @ $ & * = * X + $ $ $ $ . $ t ",
"+.| +.+.f & @ 5 4 5 5 6 8 5 5 5 2 5 C O.8.>.N.}.-.}.=.K . 5 9 5 5 5 4 e 6 8 5 5 N 5 5 5 2 5 5 5 v h ",
"+X+Xe.+X$.8 x *.3.3.C *.=.*.*.*.*.*.-.+X+X:X:X:X) &Xm.' # W n.l.*.*.=.=.}.=.*.*.-.A *.*.*.*.*.#.{ j.",
"` %Xw.+X2.g B :.#X7.+X:X:X:X:.'.G.-.+X+X:X:X:X:X:X:X}.-.C K }.+X:XU.:X:X+X:X'.+X#X7.-.+X-.;.+X0.^ ^ ",
"#X@XI.-X&.H ~ :.:XC.'.:X:XXX:X+X+X+X+X+X+X,X+X+X:X+X:.:.C s 9.-X:X>X:X:XoX X:X:X+X}.OX,X}.+X:X#X:X:X",
"#X9.>X-XI b O.V.*X4.e.:X:XOX'.+X+X+X}.+X+X+X,X+X[.+X+X>.C K &X*X+X>X:X:X:X*X:X:XXX'.XX+XOX].:X>X:X:X",
"^ W.(.:X Xu $.:X,XZ.:X>X(.>Xx.'.+X6X+X+X,X+X+X+X+X:X:X>.V L T.:X:X:X:X(.:X:X:X:X].].,X+X+X+X:X+X:XS.",
"(.W.a.(.OXS k.S.:Xe.:X:X=X(.>X>X+X+X{.+X,X+XG.:X:Xe.XX-.~ I I.>X:X:X:X_.:X:X:XOX<X].+X+X,X,X:X:X:X:X",
"l.E.^.`.+XB X.:XR.N.:X=XXX=X1X~.OX+X+X+X:X}.XX:X:X+Xw.=.G 7 V.1X:X#X/.,X:XXX+X].,X:X:X:X:X:X:X:X:X:X",
"^ f.~.>XC.z @.e.W.-X:X0.@.!.,X:X[.G.G.<X<X:XK.+X:XS.| &.&.1 G.W.:XF.F.:X:X:XF.:.,X:X:X:X:X:X:X:X{.>.",
"^ a.z.^ g.5 @.k.f L.(.:X:X:X(.:XK.:X+X+X+X+X:X:X:Xv.}.-.=.2 P.v.:X7.z.b.:X}.:.:X:X:X:X:X:X:X:X*X8.^ ",
"^ 4.L.V.*.1 V.c. X!.#X*X-X:X:X:X+X+X*X+XT.:X*XG.#X6.;.&.R a j..Xc.u.F.F.U.:X*XF.*XOXXX*X:XOXXX:XM.^ ",
"^ ^ ) ' ( 7 P k m p.p.a.6.C.U.B.7...a.) k ..p.T R j G D V T <.;.c.w.Z.E.J.'.s.4.N.f.*.7.w.} G P n ~ ",
"u v u V v - t : u u i ! ! i.^ i i 3 u u u > u u u u u > = u i u i f ^ ^ i a B F s ^ ~ K ] / t u u 3 ",
": t t t y = , ; * ; * : r : t ; 3 r y 3 2 : ; ; ; : : & * t u > > u > u r u r t t t r t t > : ; ; ; ",
"L z 5 z C O.Y U V V l z x c c y 6 5 V ( U o.S V S H y -   6 n P f J d f v S v c c c c i u G H L K L ",
"+X1.#.V.+X+X:X:X:X:XOXOXOX+X-.T C R OXY.*X:Xe.+XOX=.! D   W =.*. X ..Xk.OX+X+X-.'.OX+XoXB.@X:.'.:X:X",
"+X:.;.:.:X:X:X:X:X:X:X:X:X:XC T T ;.S.+X_.:X#XT.+X+X-.I   W }.+X-.[.'.-.OX-.OX:XOX;.+X:X:X:X:XZ.:X:X",
":XF.:X#X%XF.:X:X:X:X:XOX:X:X'.1.%.-.#X=X_.h.:XOX:X:Xg.D # / =.w.:.OXOX,X+X:X:X:X+X+X+X:X:X:X:XOX'.-.",
":X#X:X%Xz.z.:X+X}.:X:XXX%XU.+X=.&.-.a.B.G.}.P.{.:X:Xu.A # / %.7.N.,X+X:X:X:X:X[.+X+X:X{.:X:X:X:.-.-.",
"S.,X,X'.#Xm.Z.:.'.:X+X:X:Xv.+X1.^ ;.^ J.+X:Xk.d.:X+X:.A & ) -.j.;.:X:X:X:X}.Z.x.:X:X:X>.:X:Xv.-.-.-.",
"D.A.k.~ j.n.z.x.7.z.:X+X+X>X;.1.^ &.) 8.#X+X;.M.5.&X;.K # W m.z.c.8.#X:X&X{.q.;.&X:X&X&X+X&X+X-.;.;.",
"M.M.M.;.B.y.M.c.-.8.,.,.|.N.;.1.! ! =...m.-.,.X.c.m.#.u   F M.z.M.z.m.}.K.z.h.c.j.j.M.m...d.;.q.w.m.",
"=.P ( I f.7.' i.b n D ^ ~ / n / h s G _ W ) ^ / 6.W a > o r _ 3.-.( i.-.e...&.6.4.i.) ) a ~ -.-.;.' ",
"X # # = X . .       # & # . . $ w r ; O . . . $ # = = : t N 3 : . o & = . e u #     . - 8 X . . X # ",
"~.f.]._.9X5X=.y -X9X9X<X7X[.C 9 n p v r.0X>X>.XX'.>.>.'.:X_.L.>.I u.4X+XI C b 0 q 2X8X9X8XqXqX9X9X_.",
":X;XXX:X:XB.C . %.XX:X:X#X{.-.XX:X:X1X#XW.=X:XXX[.+X:X:X:X:X:X:X+XXXP.:X[.&.o.a 4 f.z.&XQ.3X6X}.:X:X",
":X:XZ.:X:X].C Q x.#X:X:X:X>.+X:X].:X:X|.Z.:X:X+X+X:X:X:X:X:X=X>X:X:X+X>.;.,.$.B 5 .X&X>X(.(.:X+X:X:X",
"S.:X:X:X-.;.C q.z.z.z.S.:X:X>X1X:X:X:X:XS.:X+X:X:X:X:X:X:X:X:X:X:X:X:X+Xj.;.-.V 5 M.,X:X:X:X:X:X,X+X",
"XX:X:X#X>.{.7 z.z.z.#X:X:X1X1X>X1X:X:X,XB.XX|.m.#XXX:X:X:X:X:X:X:X:X+X,X6.%.-.M 0 {.+X:X:X:X:X:X:X:X",
"} :X:Xc.e.].F 7.z.z.7.:X:X:X:X>X:X/.:X#Xq.-.;.q.6.;.#X*XK.:XT.&X:XE.|.:X#Xq.-.V 2 1.+X&X%X,X+X,X:X:X",
"+X:X:X:X=.! V 2 :XF.c.b.b.z.:X:X:X:X:XY.w.c.6.c.&X:XK.e.;.;.:.+X:XK.:X:X:X+X:.M & ,.:X&XI.+X+X[.:X:X",
"S.:X>X>.XX{ V + z.z.z.Q.W.D.c.t.Y.&X&X:X:X;.F.F.x.j.U.&Xx.j.m.;.oX&X&X:X+X[.*.N % E 5.#Xb.b.z.:X:X+X",
"Y.:XT.{.-.%.K 6 l.l.z.z.F.Y.8.&XS.c.x.L.Y.m.n.f.;.;.y.9.-.x.6.;.;.y.9.{.-.-.Z 8 + Y 8.b.E.K.b.P.OX:X",
"v.#Xw.;.W K p V } j.w.%Xz.z.j.>.q.i._ :.S.0.%.,.;.-.-.-.-.2.,.:./ %./ _ =.{ K - + i / _ q.V.q.j.:.>.",
";.=.;.~ h i > O s #.^ l.k i ^ k Q u i Q Q *.%.Q ! Q ^ Q ! ! k ^ Q ! k ^ R G F ; X x ~ ! ! %.-.-.;.=.",
"U h y l y 8 9 < s m G s p a r r 9 8 9 u u V v v B r d 9 4 e 3 q 4 z 9 3 0 7 p 5 < 3 x : 3 - - : R ! ",
"I I A A o.9.^.4X8XwXwX8X2X^.)._.1XC.C.h.j.C.M.N.7.q.%.x 0 + z U A o.U C %.H q.G.r.q.0.2.0.f.&.} .X;X",
").}.!.).`.7X).<X-X;X,XW.wXwX`.:X,X(.`.(.w.:X_.:X:X:X1X>.C # R ~.+X:X:X+X:X+X+X:X,X'.+X_.:X,X:X:X:X,X",
"(.1X:X:X_.:X_._.;X;X:X*XY.:X:X:X:X:X$XI.:X:X:X:X:X&X] I V : K x.:X+X+Xq.v.:Xe.+X:XK.e.&X=X*X:XE.:X,X",
":X-X:X:X>X#XT.T.>X1XW.:XXX+X:Xy.:X}.:.oX+X:X:X:X:X}.,.%.C 8 ( J.T.L.-.m.m.H.{.T.G.m.+XY.+X:X:X%X:X1X",
"e.:X'.:XS._.b.*X,X>X>XZ.{.F.S.>X:XZ.+X}.+X:X:X:X:XXX=.=.R M F >.*X&X+X-.-.-.h.6.6.9.>.:X:XK.E.&X:XZ.",
":X-X>X:Xz.z.z.b.b.c.z.*XI.S.>XV.M.:.OX-.OX:X:X:X:Xb.,.%.k N s l.+X:Xe.+XOXm.*X:XXXXX+X:X+XS.;.j.XX_ ",
":X-X>Xw.%XZ.oXF.:X:XF.C.:XS.c.q.-.#X:X}.-.:X:XU.e.v.|.-.A N S h.p.C.{.-.e.y.&X:X:XOX:.#X|.6.:.q.S.:X",
":XB.I.T.@X>.=.U.H.U.].:X:Xy.z.Z.>.c.I.e.-.'.Y.H.'.8.6.-.-.x N M.a.2.{.-.{.:X:X:X&XB.;.c.6.7.-..X#X:X",
":X:X:X:X:X+XOX:X;.) ~ :.}.+Xq.V.[ ;.x.;.-.;.r.+X>.j.-.-.C 7 u ^ ^ [ ' =.+XY.>X+X:.XXv.;.-.-.+X#XT._."
};